<?xml version="1.0" encoding="UTF-8" standalone="no"?>
<!DOCTYPE svg PUBLIC "-//W3C//DTD SVG 1.1//EN"
 "http://www.w3.org/Graphics/SVG/1.1/DTD/svg11.dtd">
<!-- Generated by graphviz version 2.40.1 (20161225.0304)
 -->
<!-- Title: finite_state_machine Pages: 1 -->
<svg width="468pt" height="154pt"
 viewBox="0.00 0.00 468.00 154.00" xmlns="http://www.w3.org/2000/svg" xmlns:xlink="http://www.w3.org/1999/xlink">
<g id="graph0" class="graph" transform="scale(1 1) rotate(0) translate(4 150)">
<title>finite_state_machine</title>
<polygon fill="#ffffff" stroke="transparent" points="-4,4 -4,-150 464,-150 464,4 -4,4"/>
<!-- 0 -->
<g id="node1" class="node">
<title>0</title>
<ellipse fill="none" stroke="#000000" cx="18" cy="-77" rx="18" ry="18"/>
<text text-anchor="middle" x="18" y="-73.3" font-family="Times,serif" font-size="14.00" fill="#000000">0</text>
</g>
<!-- 2 -->
<g id="node2" class="node">
<title>2</title>
<ellipse fill="none" stroke="#000000" cx="230" cy="-128" rx="18" ry="18"/>
<text text-anchor="middle" x="230" y="-124.3" font-family="Times,serif" font-size="14.00" fill="#000000">2</text>
</g>
<!-- 0&#45;&gt;2 -->
<g id="edge1" class="edge">
<title>0&#45;&gt;2</title>
<path fill="none" stroke="#000000" d="M33.7865,-86.2522C39.9557,-89.6211 47.1765,-93.269 54,-96 99.4559,-114.1933 111.6043,-118.5775 160,-126 173.6133,-128.0879 188.8854,-128.7196 201.6827,-128.775"/>
<polygon fill="#000000" stroke="#000000" points="201.784,-132.2745 211.7595,-128.7054 201.7355,-125.2747 201.784,-132.2745"/>
<text text-anchor="middle" x="124" y="-125.8" font-family="Times,serif" font-size="14.00" fill="#000000">(0/8)</text>
</g>
<!-- 3 -->
<g id="node3" class="node">
<title>3</title>
<ellipse fill="none" stroke="#000000" cx="124" cy="-77" rx="18" ry="18"/>
<text text-anchor="middle" x="124" y="-73.3" font-family="Times,serif" font-size="14.00" fill="#000000">3</text>
</g>
<!-- 0&#45;&gt;3 -->
<g id="edge2" class="edge">
<title>0&#45;&gt;3</title>
<path fill="none" stroke="#000000" d="M36.4638,-77C52.8034,-77 76.9,-77 95.6768,-77"/>
<polygon fill="#000000" stroke="#000000" points="95.7478,-80.5001 105.7478,-77 95.7478,-73.5001 95.7478,-80.5001"/>
<text text-anchor="middle" x="71" y="-80.8" font-family="Times,serif" font-size="14.00" fill="#000000">(0/10)</text>
</g>
<!-- 1 -->
<g id="node4" class="node">
<title>1</title>
<ellipse fill="none" stroke="#000000" cx="230" cy="-18" rx="18" ry="18"/>
<text text-anchor="middle" x="230" y="-14.3" font-family="Times,serif" font-size="14.00" fill="#000000">1</text>
</g>
<!-- 0&#45;&gt;1 -->
<g id="edge3" class="edge">
<title>0&#45;&gt;1</title>
<path fill="none" stroke="#000000" d="M33.6217,-67.7097C50.7678,-57.9577 79.4025,-42.9595 106,-35 138.0582,-25.4064 176.4192,-21.2032 201.8988,-19.3767"/>
<polygon fill="#000000" stroke="#000000" points="202.2185,-22.8635 211.974,-18.7307 201.7705,-15.8779 202.2185,-22.8635"/>
<text text-anchor="middle" x="124" y="-38.8" font-family="Times,serif" font-size="14.00" fill="#000000">(0/7)</text>
</g>
<!-- 4 -->
<g id="node5" class="node">
<title>4</title>
<ellipse fill="none" stroke="#000000" cx="336" cy="-71" rx="18" ry="18"/>
<text text-anchor="middle" x="336" y="-67.3" font-family="Times,serif" font-size="14.00" fill="#000000">4</text>
</g>
<!-- 2&#45;&gt;4 -->
<g id="edge4" class="edge">
<title>2&#45;&gt;4</title>
<path fill="none" stroke="#000000" d="M246.1766,-119.5715C260.3971,-112.1332 281.6306,-100.956 300,-91 303.6438,-89.0251 307.4834,-86.9191 311.2431,-84.8426"/>
<polygon fill="#000000" stroke="#000000" points="313.223,-87.7467 320.2678,-79.8332 309.8258,-81.6263 313.223,-87.7467"/>
<text text-anchor="middle" x="283" y="-111.8" font-family="Times,serif" font-size="14.00" fill="#000000">(0/12)</text>
</g>
<!-- 3&#45;&gt;2 -->
<g id="edge6" class="edge">
<title>3&#45;&gt;2</title>
<path fill="none" stroke="#000000" d="M140.5625,-84.9688C157.6759,-93.2026 184.6131,-106.1629 204.4565,-115.7102"/>
<polygon fill="#000000" stroke="#000000" points="203.0251,-118.9055 213.5538,-120.0872 206.06,-112.5976 203.0251,-118.9055"/>
<text text-anchor="middle" x="177" y="-113.8" font-family="Times,serif" font-size="14.00" fill="#000000">(0/2)</text>
</g>
<!-- 3&#45;&gt;1 -->
<g id="edge7" class="edge">
<title>3&#45;&gt;1</title>
<path fill="none" stroke="#000000" d="M137.366,-64.7722C143.8826,-59.2027 152.0222,-52.7985 160,-48 173.5432,-39.8541 189.7001,-32.7747 203.0775,-27.5419"/>
<polygon fill="#000000" stroke="#000000" points="204.5599,-30.7233 212.676,-23.9131 202.0844,-24.1756 204.5599,-30.7233"/>
<text text-anchor="middle" x="177" y="-51.8" font-family="Times,serif" font-size="14.00" fill="#000000">(0/11)</text>
</g>
<!-- 3&#45;&gt;4 -->
<g id="edge5" class="edge">
<title>3&#45;&gt;4</title>
<path fill="none" stroke="#000000" d="M142.075,-76.4884C179.0769,-75.4412 263.6846,-73.0467 307.9054,-71.7951"/>
<polygon fill="#000000" stroke="#000000" points="308.0738,-75.2919 317.9707,-71.5103 307.8757,-68.2947 308.0738,-75.2919"/>
<text text-anchor="middle" x="230" y="-77.8" font-family="Times,serif" font-size="14.00" fill="#000000">(0/5)</text>
</g>
<!-- 1&#45;&gt;4 -->
<g id="edge8" class="edge">
<title>1&#45;&gt;4</title>
<path fill="none" stroke="#000000" d="M247.0491,-24.3998C261.4506,-30.0185 282.4703,-38.7239 300,-48 304.093,-50.1659 308.331,-52.6435 312.3997,-55.1518"/>
<polygon fill="#000000" stroke="#000000" points="310.6013,-58.1561 320.9145,-60.5831 314.3658,-52.2545 310.6013,-58.1561"/>
<text text-anchor="middle" x="283" y="-51.8" font-family="Times,serif" font-size="14.00" fill="#000000">(0/1)</text>
</g>
<!-- 5 -->
<g id="node6" class="node">
<title>5</title>
<ellipse fill="none" stroke="#000000" cx="442" cy="-30" rx="18" ry="18"/>
<text text-anchor="middle" x="442" y="-26.3" font-family="Times,serif" font-size="14.00" fill="#000000">5</text>
</g>
<!-- 1&#45;&gt;5 -->
<g id="edge9" class="edge">
<title>1&#45;&gt;5</title>
<path fill="none" stroke="#000000" d="M248.075,-19.0231C285.0769,-21.1176 369.6846,-25.9067 413.9054,-28.4097"/>
<polygon fill="#000000" stroke="#000000" points="413.7889,-31.9087 423.9707,-28.9795 414.1846,-24.9198 413.7889,-31.9087"/>
<text text-anchor="middle" x="336" y="-28.8" font-family="Times,serif" font-size="14.00" fill="#000000">(0/21)</text>
</g>
<!-- 4&#45;&gt;5 -->
<g id="edge10" class="edge">
<title>4&#45;&gt;5</title>
<path fill="none" stroke="#000000" d="M353.0307,-64.4126C369.8753,-57.8973 395.8979,-47.832 415.456,-40.267"/>
<polygon fill="#000000" stroke="#000000" points="416.9475,-43.4429 425.0115,-36.571 414.4223,-36.9142 416.9475,-43.4429"/>
<text text-anchor="middle" x="389" y="-59.8" font-family="Times,serif" font-size="14.00" fill="#000000">(0/14)</text>
</g>
</g>
</svg>
