<?xml version="1.0" encoding="UTF-8" standalone="no"?>
<!DOCTYPE svg PUBLIC "-//W3C//DTD SVG 1.1//EN"
 "http://www.w3.org/Graphics/SVG/1.1/DTD/svg11.dtd">
<!-- Generated by graphviz version 2.40.1 (20161225.0304)
 -->
<!-- Title: finite_state_machine Pages: 1 -->
<svg width="360pt" height="155pt"
 viewBox="0.00 0.00 360.00 155.00" xmlns="http://www.w3.org/2000/svg" xmlns:xlink="http://www.w3.org/1999/xlink">
<g id="graph0" class="graph" transform="scale(1 1) rotate(0) translate(4 151)">
<title>finite_state_machine</title>
<polygon fill="#ffffff" stroke="transparent" points="-4,4 -4,-151 356,-151 356,4 -4,4"/>
<!-- 4 -->
<g id="node1" class="node">
<title>4</title>
<ellipse fill="none" stroke="#000000" cx="255" cy="-77" rx="18" ry="18"/>
<text text-anchor="middle" x="255" y="-73.3" font-family="Times,serif" font-size="14.00" fill="#000000">4</text>
</g>
<!-- 5 -->
<g id="node2" class="node">
<title>5</title>
<ellipse fill="none" stroke="#000000" cx="334" cy="-108" rx="18" ry="18"/>
<text text-anchor="middle" x="334" y="-104.3" font-family="Times,serif" font-size="14.00" fill="#000000">5</text>
</g>
<!-- 4&#45;&gt;5 -->
<g id="edge1" class="edge">
<title>4&#45;&gt;5</title>
<path fill="none" stroke="#000000" d="M272.1418,-83.7265C282.565,-87.8167 296.0853,-93.1221 307.8262,-97.7293"/>
<polygon fill="#000000" stroke="#000000" points="306.5755,-100.9983 317.163,-101.3931 309.1326,-94.482 306.5755,-100.9983"/>
<text text-anchor="middle" x="294.5" y="-96.8" font-family="Times,serif" font-size="14.00" fill="#000000">1</text>
</g>
<!-- 1 -->
<g id="node3" class="node">
<title>1</title>
<ellipse fill="none" stroke="#000000" cx="176" cy="-129" rx="18" ry="18"/>
<text text-anchor="middle" x="176" y="-125.3" font-family="Times,serif" font-size="14.00" fill="#000000">1</text>
</g>
<!-- 1&#45;&gt;4 -->
<g id="edge3" class="edge">
<title>1&#45;&gt;4</title>
<path fill="none" stroke="#000000" d="M191.232,-118.9739C202.5981,-111.4924 218.3413,-101.1298 231.3409,-92.5731"/>
<polygon fill="#000000" stroke="#000000" points="233.3862,-95.417 239.8148,-86.9953 229.5375,-89.57 233.3862,-95.417"/>
<text text-anchor="middle" x="215.5" y="-107.8" font-family="Times,serif" font-size="14.00" fill="#000000">1</text>
</g>
<!-- 1&#45;&gt;5 -->
<g id="edge2" class="edge">
<title>1&#45;&gt;5</title>
<path fill="none" stroke="#000000" d="M194.1246,-126.591C221.5069,-122.9516 273.647,-116.0216 305.9549,-111.7275"/>
<polygon fill="#000000" stroke="#000000" points="306.6351,-115.168 316.0868,-110.3809 305.7128,-108.229 306.6351,-115.168"/>
<text text-anchor="middle" x="255" y="-123.8" font-family="Times,serif" font-size="14.00" fill="#000000">1</text>
</g>
<!-- 3 -->
<g id="node4" class="node">
<title>3</title>
<ellipse fill="none" stroke="#000000" cx="97" cy="-72" rx="18" ry="18"/>
<text text-anchor="middle" x="97" y="-68.3" font-family="Times,serif" font-size="14.00" fill="#000000">3</text>
</g>
<!-- 3&#45;&gt;4 -->
<g id="edge6" class="edge">
<title>3&#45;&gt;4</title>
<path fill="none" stroke="#000000" d="M115.1246,-72.5736C142.3612,-73.4355 194.093,-75.0726 226.4377,-76.0961"/>
<polygon fill="#000000" stroke="#000000" points="226.4944,-79.5996 236.6001,-76.4177 226.7158,-72.6031 226.4944,-79.5996"/>
<text text-anchor="middle" x="176" y="-77.8" font-family="Times,serif" font-size="14.00" fill="#000000">1</text>
</g>
<!-- 3&#45;&gt;1 -->
<g id="edge4" class="edge">
<title>3&#45;&gt;1</title>
<path fill="none" stroke="#000000" d="M111.8593,-82.7213C123.4453,-91.0808 139.7406,-102.8382 153.0069,-112.41"/>
<polygon fill="#000000" stroke="#000000" points="151.0499,-115.3139 161.2073,-118.3268 155.1457,-109.6373 151.0499,-115.3139"/>
<text text-anchor="middle" x="136.5" y="-105.8" font-family="Times,serif" font-size="14.00" fill="#000000">1</text>
</g>
<!-- 2 -->
<g id="node5" class="node">
<title>2</title>
<ellipse fill="none" stroke="#000000" cx="176" cy="-18" rx="18" ry="18"/>
<text text-anchor="middle" x="176" y="-14.3" font-family="Times,serif" font-size="14.00" fill="#000000">2</text>
</g>
<!-- 3&#45;&gt;2 -->
<g id="edge5" class="edge">
<title>3&#45;&gt;2</title>
<path fill="none" stroke="#000000" d="M110.6411,-60.1996C117.2181,-54.7238 125.3288,-48.2749 133,-43 138.6034,-39.147 144.8284,-35.2987 150.7624,-31.817"/>
<polygon fill="#000000" stroke="#000000" points="152.7712,-34.7002 159.7164,-26.6992 149.2976,-28.6228 152.7712,-34.7002"/>
<text text-anchor="middle" x="136.5" y="-46.8" font-family="Times,serif" font-size="14.00" fill="#000000">1</text>
</g>
<!-- 2&#45;&gt;4 -->
<g id="edge7" class="edge">
<title>2&#45;&gt;4</title>
<path fill="none" stroke="#000000" d="M192.0739,-26.1949C200.3994,-30.7205 210.5608,-36.6939 219,-43 224.4232,-47.0524 229.9165,-51.829 234.9235,-56.5007"/>
<polygon fill="#000000" stroke="#000000" points="232.6872,-59.2068 242.3116,-63.6366 237.5503,-54.1719 232.6872,-59.2068"/>
<text text-anchor="middle" x="215.5" y="-46.8" font-family="Times,serif" font-size="14.00" fill="#000000">1</text>
</g>
<!-- 0 -->
<g id="node6" class="node">
<title>0</title>
<ellipse fill="none" stroke="#000000" cx="18" cy="-72" rx="18" ry="18"/>
<text text-anchor="middle" x="18" y="-68.3" font-family="Times,serif" font-size="14.00" fill="#000000">0</text>
</g>
<!-- 0&#45;&gt;1 -->
<g id="edge8" class="edge">
<title>0&#45;&gt;1</title>
<path fill="none" stroke="#000000" d="M33.9191,-80.9406C40.1046,-84.2714 47.3019,-87.9744 54,-91 88.2276,-106.4609 96.8378,-110.858 133,-121 137.7752,-122.3392 142.9127,-123.5159 147.9168,-124.5256"/>
<polygon fill="#000000" stroke="#000000" points="147.3723,-127.9842 157.8423,-126.3627 148.6463,-121.1011 147.3723,-127.9842"/>
<text text-anchor="middle" x="97" y="-118.8" font-family="Times,serif" font-size="14.00" fill="#000000">1</text>
</g>
<!-- 0&#45;&gt;3 -->
<g id="edge9" class="edge">
<title>0&#45;&gt;3</title>
<path fill="none" stroke="#000000" d="M36.3228,-72C45.8947,-72 57.8223,-72 68.5629,-72"/>
<polygon fill="#000000" stroke="#000000" points="68.7766,-75.5001 78.7766,-72 68.7766,-68.5001 68.7766,-75.5001"/>
<text text-anchor="middle" x="57.5" y="-75.8" font-family="Times,serif" font-size="14.00" fill="#000000">1</text>
</g>
<!-- 0&#45;&gt;2 -->
<g id="edge10" class="edge">
<title>0&#45;&gt;2</title>
<path fill="none" stroke="#000000" d="M31.4407,-59.8835C43.1265,-50.0913 60.9704,-36.8489 79,-30 101.0839,-21.611 127.8354,-18.7973 147.6467,-17.976"/>
<polygon fill="#000000" stroke="#000000" points="147.9627,-21.4689 157.8653,-17.7019 147.775,-14.4714 147.9627,-21.4689"/>
<text text-anchor="middle" x="97" y="-33.8" font-family="Times,serif" font-size="14.00" fill="#000000">1</text>
</g>
</g>
</svg>
