<?xml version="1.0" encoding="UTF-8" standalone="no"?>
<!DOCTYPE svg PUBLIC "-//W3C//DTD SVG 1.1//EN"
 "http://www.w3.org/Graphics/SVG/1.1/DTD/svg11.dtd">
<!-- Generated by graphviz version 2.40.1 (20161225.0304)
 -->
<!-- Title: finite_state_machine Pages: 1 -->
<svg width="388pt" height="155pt"
 viewBox="0.00 0.00 388.00 155.00" xmlns="http://www.w3.org/2000/svg" xmlns:xlink="http://www.w3.org/1999/xlink">
<g id="graph0" class="graph" transform="scale(1 1) rotate(0) translate(4 151)">
<title>finite_state_machine</title>
<polygon fill="#ffffff" stroke="transparent" points="-4,4 -4,-151 384,-151 384,4 -4,4"/>
<!-- 4 -->
<g id="node1" class="node">
<title>4</title>
<ellipse fill="none" stroke="#000000" cx="276" cy="-77" rx="18" ry="18"/>
<text text-anchor="middle" x="276" y="-73.3" font-family="Times,serif" font-size="14.00" fill="#000000">4</text>
</g>
<!-- 5 -->
<g id="node2" class="node">
<title>5</title>
<ellipse fill="none" stroke="#000000" cx="362" cy="-108" rx="18" ry="18"/>
<text text-anchor="middle" x="362" y="-104.3" font-family="Times,serif" font-size="14.00" fill="#000000">5</text>
</g>
<!-- 4&#45;&gt;5 -->
<g id="edge1" class="edge">
<title>4&#45;&gt;5</title>
<path fill="none" stroke="#000000" d="M292.9908,-83.1246C305.1231,-87.4979 321.6801,-93.4661 335.5352,-98.4604"/>
<polygon fill="#000000" stroke="#000000" points="334.4501,-101.7896 345.0445,-101.8881 336.8239,-95.2044 334.4501,-101.7896"/>
<text text-anchor="middle" x="319" y="-97.8" font-family="Times,serif" font-size="14.00" fill="#000000">14</text>
</g>
<!-- 1 -->
<g id="node3" class="node">
<title>1</title>
<ellipse fill="none" stroke="#000000" cx="190" cy="-129" rx="18" ry="18"/>
<text text-anchor="middle" x="190" y="-125.3" font-family="Times,serif" font-size="14.00" fill="#000000">1</text>
</g>
<!-- 1&#45;&gt;4 -->
<g id="edge3" class="edge">
<title>1&#45;&gt;4</title>
<path fill="none" stroke="#000000" d="M205.325,-119.0044C211.6828,-114.9111 219.159,-110.1666 226,-106 234.2196,-100.9938 243.2981,-95.6684 251.4382,-90.9656"/>
<polygon fill="#000000" stroke="#000000" points="253.2061,-93.9865 260.1342,-85.9707 249.7196,-87.9165 253.2061,-93.9865"/>
<text text-anchor="middle" x="233" y="-109.8" font-family="Times,serif" font-size="14.00" fill="#000000">1</text>
</g>
<!-- 1&#45;&gt;5 -->
<g id="edge2" class="edge">
<title>1&#45;&gt;5</title>
<path fill="none" stroke="#000000" d="M208.0539,-126.9975C234.1169,-124.0791 283.7904,-118.4135 326,-113 328.5739,-112.6699 331.2499,-112.3168 333.9287,-111.9566"/>
<polygon fill="#000000" stroke="#000000" points="334.6331,-115.3929 344.0646,-110.5662 333.6817,-108.4578 334.6331,-115.3929"/>
<text text-anchor="middle" x="276" y="-124.8" font-family="Times,serif" font-size="14.00" fill="#000000">21</text>
</g>
<!-- 3 -->
<g id="node4" class="node">
<title>3</title>
<ellipse fill="none" stroke="#000000" cx="104" cy="-72" rx="18" ry="18"/>
<text text-anchor="middle" x="104" y="-68.3" font-family="Times,serif" font-size="14.00" fill="#000000">3</text>
</g>
<!-- 3&#45;&gt;4 -->
<g id="edge6" class="edge">
<title>3&#45;&gt;4</title>
<path fill="none" stroke="#000000" d="M122.0819,-72.5256C152.019,-73.3959 212.1028,-75.1425 247.7011,-76.1774"/>
<polygon fill="#000000" stroke="#000000" points="247.8047,-79.6818 257.9023,-76.4739 248.0082,-72.6847 247.8047,-79.6818"/>
<text text-anchor="middle" x="190" y="-77.8" font-family="Times,serif" font-size="14.00" fill="#000000">5</text>
</g>
<!-- 3&#45;&gt;1 -->
<g id="edge4" class="edge">
<title>3&#45;&gt;1</title>
<path fill="none" stroke="#000000" d="M119.3751,-82.1905C132.3383,-90.7823 151.1102,-103.2242 166.0428,-113.1214"/>
<polygon fill="#000000" stroke="#000000" points="164.489,-116.2905 174.758,-118.8978 168.3563,-110.4557 164.489,-116.2905"/>
<text text-anchor="middle" x="147" y="-106.8" font-family="Times,serif" font-size="14.00" fill="#000000">11</text>
</g>
<!-- 2 -->
<g id="node5" class="node">
<title>2</title>
<ellipse fill="none" stroke="#000000" cx="190" cy="-18" rx="18" ry="18"/>
<text text-anchor="middle" x="190" y="-14.3" font-family="Times,serif" font-size="14.00" fill="#000000">2</text>
</g>
<!-- 3&#45;&gt;2 -->
<g id="edge5" class="edge">
<title>3&#45;&gt;2</title>
<path fill="none" stroke="#000000" d="M117.4955,-59.9806C124.0406,-54.4567 132.1666,-48.0308 140,-43 147.5473,-38.153 156.162,-33.5473 164.0897,-29.6405"/>
<polygon fill="#000000" stroke="#000000" points="165.7784,-32.7129 173.301,-25.2523 162.7678,-26.3933 165.7784,-32.7129"/>
<text text-anchor="middle" x="147" y="-46.8" font-family="Times,serif" font-size="14.00" fill="#000000">2</text>
</g>
<!-- 2&#45;&gt;4 -->
<g id="edge7" class="edge">
<title>2&#45;&gt;4</title>
<path fill="none" stroke="#000000" d="M206.8999,-24.9525C216.9284,-29.4359 229.6605,-35.7698 240,-43 245.6405,-46.9443 251.2741,-51.747 256.3534,-56.4854"/>
<polygon fill="#000000" stroke="#000000" points="254.1967,-59.2709 263.8001,-63.7459 259.0834,-54.2589 254.1967,-59.2709"/>
<text text-anchor="middle" x="233" y="-46.8" font-family="Times,serif" font-size="14.00" fill="#000000">12</text>
</g>
<!-- 0 -->
<g id="node6" class="node">
<title>0</title>
<ellipse fill="none" stroke="#000000" cx="18" cy="-72" rx="18" ry="18"/>
<text text-anchor="middle" x="18" y="-68.3" font-family="Times,serif" font-size="14.00" fill="#000000">0</text>
</g>
<!-- 0&#45;&gt;1 -->
<g id="edge8" class="edge">
<title>0&#45;&gt;1</title>
<path fill="none" stroke="#000000" d="M33.8762,-81.0376C40.0563,-84.3802 47.2612,-88.0661 54,-91 91.1158,-107.1595 100.749,-111.0968 140,-121 146.9869,-122.7628 154.6256,-124.2169 161.7824,-125.3793"/>
<polygon fill="#000000" stroke="#000000" points="161.3835,-128.8585 171.7911,-126.8756 162.4185,-121.9354 161.3835,-128.8585"/>
<text text-anchor="middle" x="104" y="-119.8" font-family="Times,serif" font-size="14.00" fill="#000000">7</text>
</g>
<!-- 0&#45;&gt;3 -->
<g id="edge9" class="edge">
<title>0&#45;&gt;3</title>
<path fill="none" stroke="#000000" d="M36.2384,-72C47.6403,-72 62.5658,-72 75.506,-72"/>
<polygon fill="#000000" stroke="#000000" points="75.7879,-75.5001 85.7879,-72 75.7879,-68.5001 75.7879,-75.5001"/>
<text text-anchor="middle" x="61" y="-75.8" font-family="Times,serif" font-size="14.00" fill="#000000">10</text>
</g>
<!-- 0&#45;&gt;2 -->
<g id="edge10" class="edge">
<title>0&#45;&gt;2</title>
<path fill="none" stroke="#000000" d="M32.1687,-60.6476C45.3055,-50.7825 65.8126,-37.007 86,-30 110.6772,-21.4347 140.4246,-18.7044 161.7718,-17.9572"/>
<polygon fill="#000000" stroke="#000000" points="161.8893,-21.4556 171.8073,-17.7297 161.7306,-14.4574 161.8893,-21.4556"/>
<text text-anchor="middle" x="104" y="-33.8" font-family="Times,serif" font-size="14.00" fill="#000000">8</text>
</g>
</g>
</svg>
