<?xml version="1.0" encoding="UTF-8" standalone="no"?>
<!DOCTYPE svg PUBLIC "-//W3C//DTD SVG 1.1//EN"
 "http://www.w3.org/Graphics/SVG/1.1/DTD/svg11.dtd">
<!-- Generated by graphviz version 2.40.1 (20161225.0304)
 -->
<!-- Title: finite_state_machine Pages: 1 -->
<svg width="281pt" height="44pt"
 viewBox="0.00 0.00 281.00 44.00" xmlns="http://www.w3.org/2000/svg" xmlns:xlink="http://www.w3.org/1999/xlink">
<g id="graph0" class="graph" transform="scale(1 1) rotate(0) translate(4 40)">
<title>finite_state_machine</title>
<polygon fill="#ffffff" stroke="transparent" points="-4,4 -4,-40 277,-40 277,4 -4,4"/>
<!-- 4 -->
<g id="node1" class="node">
<title>4</title>
<ellipse fill="none" stroke="#000000" cx="176" cy="-18" rx="18" ry="18"/>
<text text-anchor="middle" x="176" y="-14.3" font-family="Times,serif" font-size="14.00" fill="#000000">4</text>
</g>
<!-- 5 -->
<g id="node2" class="node">
<title>5</title>
<ellipse fill="none" stroke="#000000" cx="255" cy="-18" rx="18" ry="18"/>
<text text-anchor="middle" x="255" y="-14.3" font-family="Times,serif" font-size="14.00" fill="#000000">5</text>
</g>
<!-- 4&#45;&gt;5 -->
<g id="edge1" class="edge">
<title>4&#45;&gt;5</title>
<path fill="none" stroke="#000000" d="M194.3228,-18C203.8947,-18 215.8223,-18 226.5629,-18"/>
<polygon fill="#000000" stroke="#000000" points="226.7766,-21.5001 236.7766,-18 226.7766,-14.5001 226.7766,-21.5001"/>
<text text-anchor="middle" x="215.5" y="-21.8" font-family="Times,serif" font-size="14.00" fill="#000000">8</text>
</g>
<!-- 2 -->
<g id="node3" class="node">
<title>2</title>
<ellipse fill="none" stroke="#000000" cx="97" cy="-18" rx="18" ry="18"/>
<text text-anchor="middle" x="97" y="-14.3" font-family="Times,serif" font-size="14.00" fill="#000000">2</text>
</g>
<!-- 2&#45;&gt;4 -->
<g id="edge2" class="edge">
<title>2&#45;&gt;4</title>
<path fill="none" stroke="#000000" d="M115.3228,-18C124.8947,-18 136.8223,-18 147.5629,-18"/>
<polygon fill="#000000" stroke="#000000" points="147.7766,-21.5001 157.7766,-18 147.7766,-14.5001 147.7766,-21.5001"/>
<text text-anchor="middle" x="136.5" y="-21.8" font-family="Times,serif" font-size="14.00" fill="#000000">8</text>
</g>
<!-- 0 -->
<g id="node4" class="node">
<title>0</title>
<ellipse fill="none" stroke="#000000" cx="18" cy="-18" rx="18" ry="18"/>
<text text-anchor="middle" x="18" y="-14.3" font-family="Times,serif" font-size="14.00" fill="#000000">0</text>
</g>
<!-- 0&#45;&gt;2 -->
<g id="edge3" class="edge">
<title>0&#45;&gt;2</title>
<path fill="none" stroke="#000000" d="M36.3228,-18C45.8947,-18 57.8223,-18 68.5629,-18"/>
<polygon fill="#000000" stroke="#000000" points="68.7766,-21.5001 78.7766,-18 68.7766,-14.5001 68.7766,-21.5001"/>
<text text-anchor="middle" x="57.5" y="-21.8" font-family="Times,serif" font-size="14.00" fill="#000000">8</text>
</g>
</g>
</svg>
