<?xml version="1.0" encoding="UTF-8" standalone="no"?>
<!DOCTYPE svg PUBLIC "-//W3C//DTD SVG 1.1//EN"
 "http://www.w3.org/Graphics/SVG/1.1/DTD/svg11.dtd">
<!-- Generated by graphviz version 2.40.1 (20161225.0304)
 -->
<!-- Title: finite_state_machine Pages: 1 -->
<svg width="474pt" height="154pt"
 viewBox="0.00 0.00 474.00 154.00" xmlns="http://www.w3.org/2000/svg" xmlns:xlink="http://www.w3.org/1999/xlink">
<g id="graph0" class="graph" transform="scale(1 1) rotate(0) translate(4 150)">
<title>finite_state_machine</title>
<polygon fill="#ffffff" stroke="transparent" points="-4,4 -4,-150 470,-150 470,4 -4,4"/>
<!-- 2 -->
<g id="node1" class="node">
<title>2</title>
<ellipse fill="none" stroke="#000000" cx="236" cy="-128" rx="18" ry="18"/>
<text text-anchor="middle" x="236" y="-124.3" font-family="Times,serif" font-size="14.00" fill="#000000">2</text>
</g>
<!-- 4 -->
<g id="node2" class="node">
<title>4</title>
<ellipse fill="none" stroke="#000000" cx="342" cy="-71" rx="18" ry="18"/>
<text text-anchor="middle" x="342" y="-67.3" font-family="Times,serif" font-size="14.00" fill="#000000">4</text>
</g>
<!-- 2&#45;&gt;4 -->
<g id="edge1" class="edge">
<title>2&#45;&gt;4</title>
<path fill="none" stroke="#000000" d="M252.1766,-119.5715C266.3971,-112.1332 287.6306,-100.956 306,-91 309.6438,-89.0251 313.4834,-86.9191 317.2431,-84.8426"/>
<polygon fill="#000000" stroke="#000000" points="319.223,-87.7467 326.2678,-79.8332 315.8258,-81.6263 319.223,-87.7467"/>
<text text-anchor="middle" x="289" y="-111.8" font-family="Times,serif" font-size="14.00" fill="#000000">(0/12)</text>
</g>
<!-- 5 -->
<g id="node5" class="node">
<title>5</title>
<ellipse fill="none" stroke="#000000" cx="448" cy="-30" rx="18" ry="18"/>
<text text-anchor="middle" x="448" y="-26.3" font-family="Times,serif" font-size="14.00" fill="#000000">5</text>
</g>
<!-- 4&#45;&gt;5 -->
<g id="edge7" class="edge">
<title>4&#45;&gt;5</title>
<path fill="none" stroke="#000000" d="M359.0307,-64.4126C375.8753,-57.8973 401.8979,-47.832 421.456,-40.267"/>
<polygon fill="#000000" stroke="#000000" points="422.9475,-43.4429 431.0115,-36.571 420.4223,-36.9142 422.9475,-43.4429"/>
<text text-anchor="middle" x="395" y="-59.8" font-family="Times,serif" font-size="14.00" fill="#000000">(0/14)</text>
</g>
<!-- 3 -->
<g id="node3" class="node">
<title>3</title>
<ellipse fill="none" stroke="#000000" cx="130" cy="-77" rx="18" ry="18"/>
<text text-anchor="middle" x="130" y="-73.3" font-family="Times,serif" font-size="14.00" fill="#000000">3</text>
</g>
<!-- 3&#45;&gt;2 -->
<g id="edge3" class="edge">
<title>3&#45;&gt;2</title>
<path fill="none" stroke="#000000" d="M146.5625,-84.9688C163.6759,-93.2026 190.6131,-106.1629 210.4565,-115.7102"/>
<polygon fill="#000000" stroke="#000000" points="209.0251,-118.9055 219.5538,-120.0872 212.06,-112.5976 209.0251,-118.9055"/>
<text text-anchor="middle" x="183" y="-113.8" font-family="Times,serif" font-size="14.00" fill="#000000">(0/2)</text>
</g>
<!-- 3&#45;&gt;4 -->
<g id="edge2" class="edge">
<title>3&#45;&gt;4</title>
<path fill="none" stroke="#000000" d="M148.075,-76.4884C185.0769,-75.4412 269.6846,-73.0467 313.9054,-71.7951"/>
<polygon fill="#000000" stroke="#000000" points="314.0738,-75.2919 323.9707,-71.5103 313.8757,-68.2947 314.0738,-75.2919"/>
<text text-anchor="middle" x="236" y="-77.8" font-family="Times,serif" font-size="14.00" fill="#000000">(0/5)</text>
</g>
<!-- 1 -->
<g id="node4" class="node">
<title>1</title>
<ellipse fill="none" stroke="#000000" cx="236" cy="-18" rx="18" ry="18"/>
<text text-anchor="middle" x="236" y="-14.3" font-family="Times,serif" font-size="14.00" fill="#000000">1</text>
</g>
<!-- 3&#45;&gt;1 -->
<g id="edge4" class="edge">
<title>3&#45;&gt;1</title>
<path fill="none" stroke="#000000" d="M143.366,-64.7722C149.8826,-59.2027 158.0222,-52.7985 166,-48 179.5432,-39.8541 195.7001,-32.7747 209.0775,-27.5419"/>
<polygon fill="#000000" stroke="#000000" points="210.5599,-30.7233 218.676,-23.9131 208.0844,-24.1756 210.5599,-30.7233"/>
<text text-anchor="middle" x="183" y="-51.8" font-family="Times,serif" font-size="14.00" fill="#000000">(0/11)</text>
</g>
<!-- 1&#45;&gt;4 -->
<g id="edge5" class="edge">
<title>1&#45;&gt;4</title>
<path fill="none" stroke="#000000" d="M253.0491,-24.3998C267.4506,-30.0185 288.4703,-38.7239 306,-48 310.093,-50.1659 314.331,-52.6435 318.3997,-55.1518"/>
<polygon fill="#000000" stroke="#000000" points="316.6013,-58.1561 326.9145,-60.5831 320.3658,-52.2545 316.6013,-58.1561"/>
<text text-anchor="middle" x="289" y="-51.8" font-family="Times,serif" font-size="14.00" fill="#000000">(0/1)</text>
</g>
<!-- 1&#45;&gt;5 -->
<g id="edge6" class="edge">
<title>1&#45;&gt;5</title>
<path fill="none" stroke="#000000" d="M254.075,-19.0231C291.0769,-21.1176 375.6846,-25.9067 419.9054,-28.4097"/>
<polygon fill="#000000" stroke="#000000" points="419.7889,-31.9087 429.9707,-28.9795 420.1846,-24.9198 419.7889,-31.9087"/>
<text text-anchor="middle" x="342" y="-27.8" font-family="Times,serif" font-size="14.00" fill="#000000">(0/21)</text>
</g>
<!-- 0 -->
<g id="node6" class="node">
<title>0</title>
<ellipse fill="none" stroke="#000000" cx="18" cy="-77" rx="18" ry="18"/>
<text text-anchor="middle" x="18" y="-73.3" font-family="Times,serif" font-size="14.00" fill="#000000">0</text>
</g>
<!-- 0&#45;&gt;2 -->
<g id="edge8" class="edge">
<title>0&#45;&gt;2</title>
<path fill="none" stroke="#000000" d="M33.7664,-86.3031C39.933,-89.6783 47.1574,-93.3171 54,-96 101.9765,-114.8111 115.0093,-118.5469 166,-126 179.6276,-127.9919 194.9014,-128.6126 207.6961,-128.6855"/>
<polygon fill="#000000" stroke="#000000" points="207.7872,-132.1852 217.7699,-128.6361 207.7528,-125.1853 207.7872,-132.1852"/>
<text text-anchor="middle" x="130" y="-126.8" font-family="Times,serif" font-size="14.00" fill="#000000">(0/8)</text>
</g>
<!-- 0&#45;&gt;3 -->
<g id="edge10" class="edge">
<title>0&#45;&gt;3</title>
<path fill="none" stroke="#000000" d="M36.4945,-77C54.2718,-77 81.3816,-77 101.8413,-77"/>
<polygon fill="#000000" stroke="#000000" points="101.8497,-80.5001 111.8496,-77 101.8496,-73.5001 101.8497,-80.5001"/>
<text text-anchor="middle" x="74" y="-80.8" font-family="Times,serif" font-size="14.00" fill="#000000">(10/10)</text>
</g>
<!-- 0&#45;&gt;1 -->
<g id="edge9" class="edge">
<title>0&#45;&gt;1</title>
<path fill="none" stroke="#000000" d="M33.7769,-68.2733C52.041,-58.5735 83.2977,-43.1982 112,-35 144.1761,-25.8095 182.5131,-21.5244 207.9549,-19.5687"/>
<polygon fill="#000000" stroke="#000000" points="208.2819,-23.0545 218.0135,-18.8657 207.7937,-16.0716 208.2819,-23.0545"/>
<text text-anchor="middle" x="130" y="-38.8" font-family="Times,serif" font-size="14.00" fill="#000000">(0/7)</text>
</g>
</g>
</svg>
