<?xml version="1.0" encoding="UTF-8" standalone="no"?>
<!DOCTYPE svg PUBLIC "-//W3C//DTD SVG 1.1//EN"
 "http://www.w3.org/Graphics/SVG/1.1/DTD/svg11.dtd">
<!-- Generated by graphviz version 2.40.1 (20161225.0304)
 -->
<!-- Title: finite_state_machine Pages: 1 -->
<svg width="496pt" height="154pt"
 viewBox="0.00 0.00 496.00 154.00" xmlns="http://www.w3.org/2000/svg" xmlns:xlink="http://www.w3.org/1999/xlink">
<g id="graph0" class="graph" transform="scale(1 1) rotate(0) translate(4 150)">
<title>finite_state_machine</title>
<polygon fill="#ffffff" stroke="transparent" points="-4,4 -4,-150 492,-150 492,4 -4,4"/>
<!-- 0 -->
<g id="node1" class="node">
<title>0</title>
<ellipse fill="none" stroke="#000000" cx="18" cy="-77" rx="18" ry="18"/>
<text text-anchor="middle" x="18" y="-73.3" font-family="Times,serif" font-size="14.00" fill="#000000">0</text>
</g>
<!-- 2 -->
<g id="node2" class="node">
<title>2</title>
<ellipse fill="none" stroke="#000000" cx="242" cy="-128" rx="18" ry="18"/>
<text text-anchor="middle" x="242" y="-124.3" font-family="Times,serif" font-size="14.00" fill="#000000">2</text>
</g>
<!-- 0&#45;&gt;2 -->
<g id="edge1" class="edge">
<title>0&#45;&gt;2</title>
<path fill="none" stroke="#000000" d="M33.7664,-86.3031C39.933,-89.6783 47.1574,-93.3171 54,-96 101.9765,-114.8111 115.0009,-118.6043 166,-126 181.6136,-128.2642 199.2157,-128.85 213.5453,-128.8312"/>
<polygon fill="#000000" stroke="#000000" points="213.818,-132.3285 223.7782,-128.7167 213.7397,-125.3289 213.818,-132.3285"/>
<text text-anchor="middle" x="130" y="-126.8" font-family="Times,serif" font-size="14.00" fill="#000000">(8/8)</text>
</g>
<!-- 3 -->
<g id="node3" class="node">
<title>3</title>
<ellipse fill="none" stroke="#000000" cx="130" cy="-77" rx="18" ry="18"/>
<text text-anchor="middle" x="130" y="-73.3" font-family="Times,serif" font-size="14.00" fill="#000000">3</text>
</g>
<!-- 0&#45;&gt;3 -->
<g id="edge2" class="edge">
<title>0&#45;&gt;3</title>
<path fill="none" stroke="#000000" d="M36.4945,-77C54.2718,-77 81.3816,-77 101.8413,-77"/>
<polygon fill="#000000" stroke="#000000" points="101.8497,-80.5001 111.8496,-77 101.8496,-73.5001 101.8497,-80.5001"/>
<text text-anchor="middle" x="74" y="-80.8" font-family="Times,serif" font-size="14.00" fill="#000000">(10/10)</text>
</g>
<!-- 1 -->
<g id="node4" class="node">
<title>1</title>
<ellipse fill="none" stroke="#000000" cx="242" cy="-18" rx="18" ry="18"/>
<text text-anchor="middle" x="242" y="-14.3" font-family="Times,serif" font-size="14.00" fill="#000000">1</text>
</g>
<!-- 0&#45;&gt;1 -->
<g id="edge3" class="edge">
<title>0&#45;&gt;1</title>
<path fill="none" stroke="#000000" d="M33.7678,-68.2409C52.0234,-58.5115 83.2724,-43.109 112,-35 146.2703,-25.3265 187.2044,-21.1274 213.859,-19.3244"/>
<polygon fill="#000000" stroke="#000000" points="214.239,-22.8078 224.0082,-18.7075 213.8143,-15.8207 214.239,-22.8078"/>
<text text-anchor="middle" x="130" y="-38.8" font-family="Times,serif" font-size="14.00" fill="#000000">(7/7)</text>
</g>
<!-- 4 -->
<g id="node5" class="node">
<title>4</title>
<ellipse fill="none" stroke="#000000" cx="356" cy="-71" rx="18" ry="18"/>
<text text-anchor="middle" x="356" y="-67.3" font-family="Times,serif" font-size="14.00" fill="#000000">4</text>
</g>
<!-- 2&#45;&gt;4 -->
<g id="edge4" class="edge">
<title>2&#45;&gt;4</title>
<path fill="none" stroke="#000000" d="M258.381,-120.2081C273.8225,-112.8199 297.5766,-101.3429 318,-91 322.1527,-88.897 326.5402,-86.6301 330.8009,-84.4044"/>
<polygon fill="#000000" stroke="#000000" points="332.5653,-87.431 339.7854,-79.6773 329.3059,-81.2361 332.5653,-87.431"/>
<text text-anchor="middle" x="298" y="-113.8" font-family="Times,serif" font-size="14.00" fill="#000000">(12/12)</text>
</g>
<!-- 3&#45;&gt;2 -->
<g id="edge6" class="edge">
<title>3&#45;&gt;2</title>
<path fill="none" stroke="#000000" d="M146.6491,-84.3307C162.0765,-91.1513 185.6435,-101.6414 206,-111 209.3029,-112.5184 212.7681,-114.1305 216.1895,-115.7336"/>
<polygon fill="#000000" stroke="#000000" points="215.0072,-119.0456 225.5451,-120.1428 217.9915,-112.7136 215.0072,-119.0456"/>
<text text-anchor="middle" x="186" y="-114.8" font-family="Times,serif" font-size="14.00" fill="#000000">(2/2)</text>
</g>
<!-- 3&#45;&gt;1 -->
<g id="edge7" class="edge">
<title>3&#45;&gt;1</title>
<path fill="none" stroke="#000000" d="M143.3045,-64.6682C149.8076,-59.0759 157.9536,-52.6826 166,-48 181.4403,-39.0146 200.0817,-31.6095 215.038,-26.4045"/>
<polygon fill="#000000" stroke="#000000" points="216.3495,-29.6564 224.719,-23.1601 214.1251,-23.0192 216.3495,-29.6564"/>
<text text-anchor="middle" x="186" y="-51.8" font-family="Times,serif" font-size="14.00" fill="#000000">(11/11)</text>
</g>
<!-- 3&#45;&gt;4 -->
<g id="edge5" class="edge">
<title>3&#45;&gt;4</title>
<path fill="none" stroke="#000000" d="M148.1125,-76.5191C187.3711,-75.4769 280.5553,-73.003 327.6757,-71.752"/>
<polygon fill="#000000" stroke="#000000" points="327.8977,-75.2474 337.8012,-71.4832 327.7118,-68.2499 327.8977,-75.2474"/>
<text text-anchor="middle" x="242" y="-77.8" font-family="Times,serif" font-size="14.00" fill="#000000">(5/5)</text>
</g>
<!-- 1&#45;&gt;4 -->
<g id="edge8" class="edge">
<title>1&#45;&gt;4</title>
<path fill="none" stroke="#000000" d="M259.2592,-23.8726C274.8998,-29.4136 298.4267,-38.2995 318,-48 322.5948,-50.2772 327.3667,-52.9233 331.9135,-55.593"/>
<polygon fill="#000000" stroke="#000000" points="330.4385,-58.7923 340.8017,-60.9955 334.0744,-52.8106 330.4385,-58.7923"/>
<text text-anchor="middle" x="298" y="-51.8" font-family="Times,serif" font-size="14.00" fill="#000000">(1/1)</text>
</g>
<!-- 5 -->
<g id="node6" class="node">
<title>5</title>
<ellipse fill="none" stroke="#000000" cx="470" cy="-30" rx="18" ry="18"/>
<text text-anchor="middle" x="470" y="-26.3" font-family="Times,serif" font-size="14.00" fill="#000000">5</text>
</g>
<!-- 1&#45;&gt;5 -->
<g id="edge9" class="edge">
<title>1&#45;&gt;5</title>
<path fill="none" stroke="#000000" d="M260.2728,-18.9617C299.9768,-21.0514 394.3534,-26.0186 441.7772,-28.5146"/>
<polygon fill="#000000" stroke="#000000" points="441.7865,-32.0198 451.9567,-29.0504 442.1545,-25.0295 441.7865,-32.0198"/>
<text text-anchor="middle" x="356" y="-28.8" font-family="Times,serif" font-size="14.00" fill="#000000">(21/21)</text>
</g>
<!-- 4&#45;&gt;5 -->
<g id="edge10" class="edge">
<title>4&#45;&gt;5</title>
<path fill="none" stroke="#000000" d="M373.3141,-64.773C391.9191,-58.0817 421.7226,-47.3629 443.3263,-39.5932"/>
<polygon fill="#000000" stroke="#000000" points="444.671,-42.8291 452.8964,-36.1513 442.302,-36.2421 444.671,-42.8291"/>
<text text-anchor="middle" x="414" y="-59.8" font-family="Times,serif" font-size="14.00" fill="#000000">(14/14)</text>
</g>
</g>
</svg>
